<?xml version="1.0" encoding="UTF-8" standalone="no"?>
<svg
   xmlns:dc="http://purl.org/dc/elements/1.1/"
   xmlns:cc="http://creativecommons.org/ns#"
   xmlns:rdf="http://www.w3.org/1999/02/22-rdf-syntax-ns#"
   xmlns:svg="http://www.w3.org/2000/svg"
   xmlns="http://www.w3.org/2000/svg"
   xmlns:sodipodi="http://sodipodi.sourceforge.net/DTD/sodipodi-0.dtd"
   xmlns:inkscape="http://www.inkscape.org/namespaces/inkscape"
   inkscape:version="1.0rc1 (09960d6, 2020-04-09)"
   height="100"
   width="100"
   sodipodi:docname="noun_Share_3282968.svg"
   id="svg196"
   version="1.1"
   y="0px"
   x="0px"
   fill="#fff"
   viewBox="0 0 100 100">
   <metadata
      id="metadata202">
      <rdf:RDF>
         <cc:Work
            rdf:about="">
            <dc:format>image/svg+xml</dc:format>
            <dc:type
               rdf:resource="http://purl.org/dc/dcmitype/StillImage" />
            <dc:title>sosmed</dc:title>
         </cc:Work>
      </rdf:RDF>
   </metadata>
   <defs
      id="defs200" />
   <sodipodi:namedview
      inkscape:current-layer="svg196"
      inkscape:window-maximized="1"
      inkscape:window-y="0"
      inkscape:window-x="0"
      inkscape:cy="19.907635"
      inkscape:cx="41.401393"
      inkscape:zoom="4.2875"
      showgrid="false"
      id="namedview198"
      inkscape:window-height="1048"
      inkscape:window-width="1920"
      inkscape:pageshadow="2"
      inkscape:pageopacity="0"
      guidetolerance="10"
      gridtolerance="10"
      objecttolerance="10"
      borderopacity="1"
      bordercolor="#666666"
      pagecolor="#ffffff" />
   <title
      id="title186">sosmed</title>
   <g
      transform="matrix(4.6436169,0,0,4.6436169,-16.775078,-24.285804)"
      id="g190"
      data-name="Layer 2">
      <path
         inkscape:connector-curvature="0"
         id="path188"
         d="m 20,19.5 a 3.48,3.48 0 0 0 -2.59,1.16 L 12.15,17.5 a 3.39,3.39 0 0 0 0,-3 l 5.26,-3.16 A 3.49,3.49 0 1 0 16.5,9 a 3.41,3.41 0 0 0 0.35,1.5 l -5.26,3.16 a 3.5,3.5 0 1 0 0,4.68 l 5.26,3.16 A 3.41,3.41 0 0 0 16.5,23 3.5,3.5 0 1 0 20,19.5 Z m 0,-13 A 2.5,2.5 0 1 1 17.5,9 2.5,2.5 0 0 1 20,6.5 Z M 9,18.5 A 2.5,2.5 0 1 1 11.5,16 2.5,2.5 0 0 1 9,18.5 Z m 11,7 A 2.5,2.5 0 1 1 22.5,23 2.5,2.5 0 0 1 20,25.5 Z" />
   </g>
</svg>